<?xml version="1.0" encoding="UTF-8"?>
<!DOCTYPE svg PUBLIC "-//W3C//DTD SVG 1.1//EN" "http://www.w3.org/Graphics/SVG/1.1/DTD/svg11.dtd">
<!-- Creator: CorelDRAW 2026 (Evaluation Version) -->
<svg xmlns="http://www.w3.org/2000/svg" xml:space="preserve" width="0.213331in" height="0.213331in" version="1.1" style="shape-rendering:geometricPrecision; text-rendering:geometricPrecision; image-rendering:optimizeQuality; fill-rule:evenodd; clip-rule:evenodd"
viewBox="0 0 213.33 213.33"
 xmlns:xlink="http://www.w3.org/1999/xlink"
 xmlns:xodm="http://www.corel.com/coreldraw/odm/2003">
 <defs>
  <style type="text/css">
   <![CDATA[
    .fil0 {fill:#4F8EF7}
   ]]>
  </style>
 </defs>
 <g id="Layer_x0020_1">
  <metadata id="CorelCorpID_0Corel-Layer"/>
  <g id="_2165643089904">
   <rect class="fil0" x="59.94" y="55.27" width="25.95" height="102.78"/>
   <path class="fil0" d="M87.09 106.66c2.31,0.72 4.39,1.87 6.24,3.18 9.71,-2.09 18.19,-1.54 24.16,4.35 8.94,2.7 20.69,-1.28 26.82,8.12 3.41,0.7 6.14,2.12 7.99,4.5 6.11,16.13 -14.64,35.2 -40.3,26.14l-34.25 -46.29 34.25 -46.29c25.65,-9.06 46.41,10.01 40.3,26.14 -1.85,2.37 -4.58,3.8 -7.99,4.5 -6.14,9.39 -17.88,5.41 -26.82,8.12 -5.97,5.9 -14.45,6.45 -24.16,4.35 -1.86,1.31 -3.93,2.46 -6.24,3.18z"/>
  </g>
 </g>
</svg>
