<?xml version="1.0" encoding="UTF-8"?>
<!DOCTYPE svg PUBLIC "-//W3C//DTD SVG 1.1//EN" "http://www.w3.org/Graphics/SVG/1.1/DTD/svg11.dtd">
<!-- Creator: CorelDRAW 2026 (Evaluation Version) -->
<svg xmlns="http://www.w3.org/2000/svg" xml:space="preserve" width="0.0748031in" height="0.0822756in" version="1.1" style="shape-rendering:geometricPrecision; text-rendering:geometricPrecision; image-rendering:optimizeQuality; fill-rule:evenodd; clip-rule:evenodd"
viewBox="0 0 74.8 82.28"
 xmlns:xlink="http://www.w3.org/1999/xlink"
 xmlns:xodm="http://www.corel.com/coreldraw/odm/2003">
 <defs>
  <style type="text/css">
   <![CDATA[
    .fil0 {fill:#4F8EF7}
   ]]>
  </style>
 </defs>
 <g id="Layer_x0020_1">
  <metadata id="CorelCorpID_0Corel-Layer"/>
  <g id="_2165628018528">
   <rect class="fil0" x="0" y="0" width="20.77" height="82.27"/>
   <path class="fil0" d="M21.74 41.14c1.85,0.57 3.51,1.49 5,2.54 7.77,-1.67 14.56,-1.23 19.33,3.48 7.16,2.17 16.56,-1.02 21.47,6.5 2.73,0.56 4.92,1.7 6.4,3.6 4.89,12.91 -11.72,28.18 -32.26,20.93l-27.41 -37.05 27.41 -37.06c20.54,-7.25 37.15,8.02 32.26,20.93 -1.48,1.9 -3.67,3.04 -6.4,3.6 -4.91,7.52 -14.31,4.33 -21.47,6.5 -4.78,4.72 -11.56,5.16 -19.33,3.48 -1.49,1.05 -3.15,1.96 -5,2.54z"/>
  </g>
 </g>
</svg>
